<svg width="560" height="140" viewBox="0 0 560 140" fill="none" xmlns="http://www.w3.org/2000/svg">
  <defs>
    <linearGradient id="panel" x1="14" y1="14" x2="126" y2="126" gradientUnits="userSpaceOnUse">
      <stop offset="0" stop-color="#1C2933" />
      <stop offset="1" stop-color="#101820" />
    </linearGradient>
    <linearGradient id="bubble" x1="30" y1="18" x2="86" y2="56" gradientUnits="userSpaceOnUse">
      <stop offset="0" stop-color="#F6B26B" />
      <stop offset="1" stop-color="#E98A2A" />
    </linearGradient>
  </defs>

  <rect x="8" y="8" width="124" height="124" rx="28" fill="url(#panel)" />
  <rect x="8" y="8" width="124" height="124" rx="28" stroke="#2F3D49" stroke-width="2" />

  <ellipse cx="58" cy="86" rx="25" ry="20" fill="#05080B" />
  <ellipse cx="62" cy="84" rx="15" ry="11" fill="#121A21" />
  <ellipse cx="46" cy="64" rx="13" ry="12" fill="#0B1015" />
  <path d="M33 87L22 95L34 98L33 87Z" fill="#1D2731" />
  <path d="M71 64L95 59L71 75V64Z" fill="#F3A24A" />
  <circle cx="43.5" cy="61.5" r="2.5" fill="#EDF6FF" />
  <circle cx="42.8" cy="61.2" r="1.1" fill="#0A1118" />

  <path d="M71 74C81 75 88 82 88 92" stroke="#2B3A46" stroke-width="3.8" stroke-linecap="round" />

  <path d="M30 22H82C86.4 22 90 25.6 90 30V41C90 45.4 86.4 49 82 49H56L44 57L46 49H30C25.6 49 22 45.4 22 41V30C22 25.6 25.6 22 30 22Z" fill="url(#bubble)" />
  <text x="42.5" y="41.5" fill="#131D26" font-size="18" font-family="Avenir Next, Helvetica Neue, Arial, sans-serif" font-weight="800">文</text>

  <text x="160" y="58" fill="#125B50" font-size="38" font-family="Avenir Next, Helvetica Neue, Arial, sans-serif" font-weight="700" letter-spacing="0.6">AICrow</text>
  <text x="160" y="95" fill="#2C5D66" font-size="28" font-family="Avenir Next, Helvetica Neue, Arial, sans-serif" font-weight="600" letter-spacing="0.2">Subtitle Translator</text>
</svg>
